<svg xmlns="http://www.w3.org/2000/svg" viewBox="0 0 1280 800" font-family="monospace">
  <defs>
    <linearGradient id="bg" x1="0" y1="0" x2="1" y2="1">
      <stop offset="0" stop-color="#151328"/>
      <stop offset="1" stop-color="#0a0a0f"/>
    </linearGradient>
  </defs>
  <rect width="1280" height="800" fill="url(#bg)"/>
  <circle cx="1040" cy="200" r="260" fill="#8b5cf6" opacity="0.12"/>
  <circle cx="240" cy="640" r="200" fill="#2dd4bf" opacity="0.08"/>
  <rect x="0" y="0" width="1280" height="34" fill="#0c0c14" opacity="0.9"/>
  <text x="24" y="22" fill="#8888a0" font-size="14">Workspaces</text>
  <text x="640" y="22" fill="#e5e5ef" font-size="14" text-anchor="middle">NCOS · Cosmic DE</text>
  <text x="1256" y="22" fill="#8888a0" font-size="14" text-anchor="end">wifi  vol  bat  12:00</text>
  <rect x="180" y="120" width="920" height="560" rx="14" fill="#12121a" stroke="#26263a"/>
  <rect x="180" y="120" width="920" height="42" rx="14" fill="#14141f"/>
  <circle cx="208" cy="141" r="6" fill="#ff5f57"/>
  <circle cx="230" cy="141" r="6" fill="#febc2e"/>
  <circle cx="252" cy="141" r="6" fill="#28c840"/>
  <text x="640" y="146" fill="#8888a0" font-size="14" text-anchor="middle">~ — terminal</text>
  <text x="210" y="210" fill="#2dd4bf" font-size="18">$ <tspan fill="#e5e5ef">neofetch</tspan></text>
  <text x="210" y="250" fill="#8b5cf6" font-size="18">      /\        <tspan fill="#e5e5ef">nic@ncos</tspan></text>
  <text x="210" y="280" fill="#8b5cf6" font-size="18">     /  \       <tspan fill="#8888a0">OS: NCOS Linux x86_64</tspan></text>
  <text x="210" y="310" fill="#8b5cf6" font-size="18">    /\   \      <tspan fill="#8888a0">DE: COSMIC</tspan></text>
  <text x="210" y="340" fill="#8b5cf6" font-size="18">   /      \     <tspan fill="#8888a0">Shell: bash</tspan></text>
  <text x="210" y="370" fill="#8b5cf6" font-size="18">  /   ,,   \    <tspan fill="#8888a0">Kernel: linux-zen</tspan></text>
  <text x="210" y="400" fill="#8b5cf6" font-size="18"> /   |  |  -\   <tspan fill="#8888a0">Pkgs: pacman + [ncos]</tspan></text>
  <text x="210" y="430" fill="#8b5cf6" font-size="18">/_-''    ''-_\</text>
  <text x="210" y="480" fill="#2dd4bf" font-size="18">$ <tspan fill="#e5e5ef">█</tspan></text>
  <text x="640" y="760" fill="#44445c" font-size="16" text-anchor="middle">placeholder — replace with a real NCOS screenshot</text>
</svg>
