<svg xmlns="http://www.w3.org/2000/svg" viewBox="0 0 1280 800" font-family="monospace">
  <defs>
    <linearGradient id="bg2" x1="0" y1="0" x2="1" y2="1">
      <stop offset="0" stop-color="#101226"/>
      <stop offset="1" stop-color="#0a0a0f"/>
    </linearGradient>
  </defs>
  <rect width="1280" height="800" fill="url(#bg2)"/>
  <rect x="0" y="0" width="1280" height="34" fill="#0c0c14" opacity="0.9"/>
  <text x="640" y="22" fill="#e5e5ef" font-size="14" text-anchor="middle">NCOS · auto-tiling</text>
  <rect x="24" y="56" width="606" height="716" rx="12" fill="#12121a" stroke="#8b5cf6" stroke-opacity="0.6"/>
  <text x="48" y="100" fill="#2dd4bf" font-size="16">$ sudo pacman -Syu</text>
  <text x="48" y="130" fill="#8888a0" font-size="16">:: Synchronizing package databases...</text>
  <text x="48" y="160" fill="#8888a0" font-size="16"> ncos is up to date</text>
  <rect x="650" y="56" width="606" height="348" rx="12" fill="#12121a" stroke="#26263a"/>
  <text x="674" y="100" fill="#e5e5ef" font-size="16">Files — ~/projects</text>
  <rect x="674" y="120" width="120" height="90" rx="8" fill="#1c1c2a"/>
  <rect x="814" y="120" width="120" height="90" rx="8" fill="#1c1c2a"/>
  <rect x="954" y="120" width="120" height="90" rx="8" fill="#1c1c2a"/>
  <rect x="650" y="424" width="606" height="348" rx="12" fill="#12121a" stroke="#26263a"/>
  <text x="674" y="468" fill="#e5e5ef" font-size="16">Settings — Appearance</text>
  <rect x="674" y="492" width="260" height="16" rx="8" fill="#8b5cf6"/>
  <rect x="674" y="524" width="200" height="16" rx="8" fill="#2dd4bf" opacity="0.7"/>
  <rect x="674" y="556" width="300" height="16" rx="8" fill="#1c1c2a"/>
  <text x="640" y="792" fill="#44445c" font-size="16" text-anchor="middle">placeholder — replace with a real NCOS screenshot</text>
</svg>
